<svg id="地图页" xmlns="http://www.w3.org/2000/svg" width="719" height="612" viewBox="0 0 719 612">
  <defs>
    <style>
      .cls-1 {
        fill: #fff;
      }

      .cls-1, .cls-2, .cls-3 {
        stroke: #fff;
      }

      .cls-1, .cls-2 {
        stroke-width: 1px;
      }

      .cls-2, .cls-3 {
        fill: none;
      }

      .cls-3 {
        stroke-width: 3px;
        fill-rule: evenodd;
      }
    </style>
  </defs>
  <g id="定点">
    <rect id="矩形_2" data-name="矩形 2" class="cls-1" x="332.5" y="173.5" width="11" height="11"/>
    <rect id="矩形_2_拷贝" data-name="矩形 2 拷贝" class="cls-2" x="284.5" y="101.5" width="11" height="11"/>
    <rect id="矩形_2_拷贝_2" data-name="矩形 2 拷贝 2" class="cls-2" x="66.5" y="350.5" width="11" height="11"/>
    <rect id="矩形_2_拷贝_3" data-name="矩形 2 拷贝 3" class="cls-2" x="569.5" y="275.5" width="11" height="11"/>
    <rect id="矩形_2_拷贝_4" data-name="矩形 2 拷贝 4" class="cls-1" x="225.5" y="216.5" width="11" height="11"/>
    <rect id="矩形_2_拷贝_5" data-name="矩形 2 拷贝 5" class="cls-1" x="211.5" y="234.5" width="11" height="11"/>
    <rect id="矩形_2_拷贝_6" data-name="矩形 2 拷贝 6" class="cls-1" x="330.5" y="216.5" width="11" height="11"/>
    <rect id="矩形_2_拷贝_7" data-name="矩形 2 拷贝 7" class="cls-1" x="294.5" y="258.5" width="11" height="11"/>
    <rect id="矩形_2_拷贝_8" data-name="矩形 2 拷贝 8" class="cls-1" x="236.5" y="264.5" width="11" height="11"/>
    <rect id="矩形_2_拷贝_9" data-name="矩形 2 拷贝 9" class="cls-2" x="206.5" y="297.5" width="11" height="11"/>
    <rect id="矩形_2_拷贝_10" data-name="矩形 2 拷贝 10" class="cls-1" x="273.5" y="300.5" width="11" height="11"/>
    <rect id="矩形_2_拷贝_11" data-name="矩形 2 拷贝 11" class="cls-1" x="344.5" y="289.5" width="11" height="11"/>
    <rect id="矩形_2_拷贝_12" data-name="矩形 2 拷贝 12" class="cls-1" x="400.5" y="289.5" width="11" height="11"/>
    <rect id="矩形_2_拷贝_13" data-name="矩形 2 拷贝 13" class="cls-1" x="416.5" y="289.5" width="11" height="11"/>
    <rect id="矩形_2_拷贝_14" data-name="矩形 2 拷贝 14" class="cls-1" x="436.5" y="297.5" width="11" height="11"/>
    <rect id="矩形_2_拷贝_15" data-name="矩形 2 拷贝 15" class="cls-1" x="491.5" y="268.5" width="11" height="11"/>
    <rect id="矩形_2_拷贝_65" data-name="矩形 2 拷贝 65" class="cls-2" x="477.5" y="259.5" width="11" height="11"/>
    <rect id="矩形_2_拷贝_16" data-name="矩形 2 拷贝 16" class="cls-1" x="509.5" y="289.5" width="11" height="11"/>
    <rect id="矩形_2_拷贝_17" data-name="矩形 2 拷贝 17" class="cls-2" x="591.5" y="328.5" width="11" height="11"/>
    <rect id="矩形_2_拷贝_18" data-name="矩形 2 拷贝 18" class="cls-1" x="580.5" y="339.5" width="11" height="11"/>
    <rect id="矩形_2_拷贝_19" data-name="矩形 2 拷贝 19" class="cls-2" x="466.5" y="317.5" width="11" height="11"/>
    <rect id="矩形_2_拷贝_20" data-name="矩形 2 拷贝 20" class="cls-2" x="421.5" y="323.5" width="11" height="11"/>
    <rect id="矩形_2_拷贝_21" data-name="矩形 2 拷贝 21" class="cls-2" x="344.5" y="311.5" width="11" height="11"/>
    <rect id="矩形_2_拷贝_22" data-name="矩形 2 拷贝 22" class="cls-1" x="288.5" y="345.5" width="11" height="11"/>
    <rect id="矩形_2_拷贝_23" data-name="矩形 2 拷贝 23" class="cls-1" x="252.5" y="369.5" width="11" height="11"/>
    <rect id="矩形_2_拷贝_24" data-name="矩形 2 拷贝 24" class="cls-1" x="194.5" y="397.5" width="11" height="11"/>
    <rect id="矩形_2_拷贝_66" data-name="矩形 2 拷贝 66" class="cls-2" x="150.5" y="481.5" width="11" height="11"/>
    <rect id="矩形_2_拷贝_26" data-name="矩形 2 拷贝 26" class="cls-1" x="172.5" y="527.5" width="11" height="11"/>
    <rect id="矩形_2_拷贝_27" data-name="矩形 2 拷贝 27" class="cls-1" x="201.5" y="538.5" width="11" height="11"/>
    <rect id="矩形_2_拷贝_28" data-name="矩形 2 拷贝 28" class="cls-1" x="231.5" y="522.5" width="11" height="11"/>
    <rect id="矩形_2_拷贝_29" data-name="矩形 2 拷贝 29" class="cls-1" x="205.5" y="461.5" width="11" height="11"/>
    <rect id="矩形_2_拷贝_30" data-name="矩形 2 拷贝 30" class="cls-1" x="222.5" y="418.5" width="11" height="11"/>
    <rect id="矩形_2_拷贝_31" data-name="矩形 2 拷贝 31" class="cls-1" x="289.5" y="467.5" width="11" height="11"/>
    <rect id="矩形_2_拷贝_32" data-name="矩形 2 拷贝 32" class="cls-1" x="252.5" y="473.5" width="11" height="11"/>
    <rect id="矩形_2_拷贝_33" data-name="矩形 2 拷贝 33" class="cls-1" x="283.5" y="424.5" width="11" height="11"/>
    <rect id="矩形_2_拷贝_34" data-name="矩形 2 拷贝 34" class="cls-2" x="283.5" y="387.5" width="11" height="11"/>
    <rect id="矩形_2_拷贝_35" data-name="矩形 2 拷贝 35" class="cls-1" x="327.5" y="375.5" width="11" height="11"/>
    <rect id="矩形_2_拷贝_36" data-name="矩形 2 拷贝 36" class="cls-1" x="356.5" y="408.5" width="11" height="11"/>
    <rect id="矩形_2_拷贝_37" data-name="矩形 2 拷贝 37" class="cls-1" x="325.5" y="454.5" width="11" height="11"/>
    <rect id="矩形_2_拷贝_38" data-name="矩形 2 拷贝 38" class="cls-1" x="376.5" y="413.5" width="11" height="11"/>
    <rect id="矩形_2_拷贝_39" data-name="矩形 2 拷贝 39" class="cls-2" x="398.5" y="456.5" width="11" height="11"/>
    <rect id="矩形_2_拷贝_40" data-name="矩形 2 拷贝 40" class="cls-1" x="412.5" y="468.5" width="11" height="11"/>
    <rect id="矩形_2_拷贝_41" data-name="矩形 2 拷贝 41" class="cls-1" x="413.5" y="484.5" width="11" height="11"/>
    <rect id="矩形_2_拷贝_42" data-name="矩形 2 拷贝 42" class="cls-1" x="516.5" y="522.5" width="11" height="11"/>
    <rect id="矩形_2_拷贝_43" data-name="矩形 2 拷贝 43" class="cls-1" x="558.5" y="494.5" width="11" height="11"/>
    <rect id="矩形_2_拷贝_44" data-name="矩形 2 拷贝 44" class="cls-2" x="595.5" y="476.5" width="11" height="11"/>
    <rect id="矩形_2_拷贝_45" data-name="矩形 2 拷贝 45" class="cls-1" x="558.5" y="453.5" width="11" height="11"/>
    <rect id="矩形_2_拷贝_46" data-name="矩形 2 拷贝 46" class="cls-1" x="520.5" y="428.5" width="11" height="11"/>
    <rect id="矩形_2_拷贝_47" data-name="矩形 2 拷贝 47" class="cls-1" x="515.5" y="390.5" width="11" height="11"/>
    <rect id="矩形_2_拷贝_48" data-name="矩形 2 拷贝 48" class="cls-1" x="463.5" y="379.5" width="11" height="11"/>
    <rect id="矩形_2_拷贝_49" data-name="矩形 2 拷贝 49" class="cls-1" x="388.5" y="345.5" width="11" height="11"/>
    <rect id="矩形_2_拷贝_50" data-name="矩形 2 拷贝 50" class="cls-1" x="398.5" y="333.5" width="11" height="11"/>
    <rect id="矩形_2_拷贝_51" data-name="矩形 2 拷贝 51" class="cls-1" x="382.5" y="333.5" width="11" height="11"/>
    <rect id="矩形_2_拷贝_52" data-name="矩形 2 拷贝 52" class="cls-1" x="345.5" y="335.5" width="11" height="11"/>
    <rect id="矩形_2_拷贝_53" data-name="矩形 2 拷贝 53" class="cls-1" x="356.5" y="361.5" width="11" height="11"/>
    <rect id="矩形_2_拷贝_54" data-name="矩形 2 拷贝 54" class="cls-1" x="392.5" y="361.5" width="11" height="11"/>
    <rect id="矩形_2_拷贝_55" data-name="矩形 2 拷贝 55" class="cls-1" x="374.5" y="351.5" width="11" height="11"/>
    <rect id="矩形_2_拷贝_56" data-name="矩形 2 拷贝 56" class="cls-1" x="404.5" y="357.5" width="11" height="11"/>
    <rect id="矩形_2_拷贝_59" data-name="矩形 2 拷贝 59" class="cls-1" x="440.5" y="334.5" width="11" height="11"/>
    <rect id="矩形_2_拷贝_60" data-name="矩形 2 拷贝 60" class="cls-2" x="422.5" y="367.5" width="11" height="11"/>
    <rect id="矩形_2_拷贝_61" data-name="矩形 2 拷贝 61" class="cls-1" x="410.5" y="371.5" width="11" height="11"/>
    <rect id="矩形_2_拷贝_62" data-name="矩形 2 拷贝 62" class="cls-2" x="388.5" y="378.5" width="11" height="11"/>
    <rect id="矩形_2_拷贝_63" data-name="矩形 2 拷贝 63" class="cls-1" x="407.5" y="384.5" width="11" height="11"/>
    <rect id="矩形_2_拷贝_64" data-name="矩形 2 拷贝 64" class="cls-1" x="394.5" y="395.5" width="11" height="11"/>
    <rect id="矩形_2_拷贝_57" data-name="矩形 2 拷贝 57" class="cls-1" x="406.5" y="344.5" width="11" height="11"/>
    <rect id="矩形_2_拷贝_58" data-name="矩形 2 拷贝 58" class="cls-1" x="419.5" y="339.5" width="11" height="11"/>
  </g>
  <path id="地图" class="cls-3" d="M312.653,5820l17,6.41h14.873l9.561,12.82,7.437,23.09-8.5,6.41-2.125,11.54,9.561,15.38,4.25,8.98v14.11l10.623,8.97,19.123,14.11,5.312,20.51,25.5,30.78,26.559,28.21-2.125,25.64v11.54h18.06l40.37,6.41,23.372-12.82,31.871-5.13s24.952,7.92,26.559,10.26,4.249,11.54,4.249,11.54l7.437,6.41,42.5,23.08,22.309,23.08,3.187,10.26s14.636,11.21,17,15.39,7.586,3.49,8.5,7.69,14.529,27.74,15.935,32.06-13.925,17.86-11.686,19.23,8.5,2.29,11.686,3.85,14.781,3.7,15.936,7.69,3.3,11.28,1.062,14.11-8.5,10.26-8.5,10.26l-10.623,3.84s3.6,13,3.187,16.67-26.559,67.97-26.559,67.97l-35.058,11.54-14.873-6.42s-21.558,13.74-22.31,16.67-14.873,14.11-14.873,14.11H586.743l-4.25,11.54-11.686,6.41-8.5,5.13-2.124,7.69-29.746-28.21-28.684-5.13-14.873-14.1-2.125-8.98-15.936-17.95-17,33.34s-7.06,14.35-10.624,15.39-18.06-5.13-18.06-5.13l-9.561-8.98-9.562-6.41-11.686,3.85-25.5-37.19-11.686,2.57-13.811,2.56-6.374-6.41-9.562,1.28-15.935-2.56-7.437,11.54s-5.513,6.36-8.5,7.69-8.226-.62-7.436,1.28-3.365,12.66-5.312,14.11-22.31,6.41-22.31,6.41l9.562,12.82s-7.558,4.2-10.624,6.41a91.336,91.336,0,0,0-7.436,6.42l-7.437-2.57s-11.8,4.22-12.748,7.7a15.271,15.271,0,0,1-4.25,7.69c-2.118,2.04-13.811,11.54-13.811,11.54s-7.49,4.55-8.5,7.69-9.562,7.7-9.562,7.7-11.706-2.24-13.811,1.28-22.679,8.72-24.434,5.13-3.421-6.63-5.312-16.67-5.274-14.26-4.249-21.8a122.7,122.7,0,0,0,1.062-14.11l-11.686-7.69-2.124-7.69-3.188-3.85-9.561,3.85H108.679l-6.374,10.26-5.312,8.97-9.561-10.26-6.374-5.13-4.249,7.7a4.1,4.1,0,0,1-5.312,3.84c-5.078-.98-30.808-2.56-30.808-2.56s-1.242-12.42-1.062-15.39-2.122-5.93-2.125-10.26,8.4-11.69,10.624-15.38,6.374-19.24,6.374-19.24,4.2-1.54,4.249-5.13,1.82-14.63,1.062-19.23,2.125-17.95,2.125-17.95l8.5-23.08,6.374-5.13-2.125-10.26L71.5,6217.5s1.488-6.9-1.062-7.69-5.08,2.56-6.374-1.28-3.363-15.55-3.187-17.95,0-10.26,0-10.26a20.444,20.444,0,0,1-4.249-6.41c-1.237-3.43-.832-2.74-4.249-6.41s-5.336-2.12-8.5-8.98-2.7-11.08-5.312-10.26A87.078,87.078,0,0,0,29,6152.11c-3.9,1.77-2.653,5.61-4.249,1.28s-0.658-2.93-2.125-7.69-10.444-24.24-9.561-26.93,9.572-10.47,13.811-12.82S46,6100.82,46,6100.82s17.982,20.9,18.06,17.95S59.8,6109.68,63,6104.66s8-13.44,10.624-15.38-0.982-2.71,9.561,0,23.372,6.41,23.372,6.41,14,4.4,15.936,3.85,5.106-2.68,11.686-6.42,13.53-11.39,15.935-11.54,24.435-1.28,24.435-1.28,13.115-19.26,12.748-23.08-8.025-10.82-1.062-16.67,7.751-7.37,11.686-10.26,6.932,7.63,8.5-6.41,1.616-7.73,1.062-16.67-0.538-9.57-1.062-12.82,3.609-24.81,4.249-30.78,19.466-28.95,20.185-34.62-1.062-28.21-1.062-28.21l1.062-21.8V5863.6l32.933-1.28s-2.716-5.75,3.187-11.55,18.465-14.54,23.372-17.95S312.653,5820,312.653,5820Z" transform="translate(-11.5 -5818.5)"/>
</svg>
